# xmcd
#
# Track frame offsets:
# 150
# 8676
# 15200
# 30644
# 39932
# 54296
# 65868
# 83177
# 102343
# 110771
# 120227
# 129433
# 136472
# 145548
# 161103
# 170262
# 179025
# 189263
# 197232
# 205719
# 215465
# 232321
# 242314
# 250695
# 259897
# 268346
# 280201
# 288423
# 301214
# 318196
#
# Disc length: 4413 seconds
#
#
# Revision: 0
# Processed by: cddbd v1.5.1PL2 Copyright (c) Steve Scherf et al.
# Submitted via: FreeRIP 2.944 
#
DISCID=a8113b1e
DTITLE=rodrigo - los mejores recuerdos
DYEAR=2005
DGENRE=Salsa
TTITLE0=yerva mala
TTITLE1=la novia de dios
TTITLE2=soy cordobes
TTITLE3=amor clasificado
TTITLE4=como le digo
TTITLE5=el divorcio
TTITLE6=informe policial
TTITLE7=la mano de dios
TTITLE8=amor de alquiler
TTITLE9=el potro
TTITLE10=en mi cama una cualquiera
TTITLE11=amor de 7º grado
TTITLE12=aprendiz
TTITLE13=cabesita-luna park-
TTITLE14=fuego y pasion- version tango
TTITLE15=fuego y pasion- a 2000
TTITLE16=!q ironia!
TTITLE17=el reloj
TTITLE18=el cuarteto y mariana
TTITLE19=la batatita
TTITLE20=lo mejor del amor
TTITLE21=ocho cuarenta
TTITLE22=si tu supieras
TTITLE23=señora de madrugada
TTITLE24=la sorda y el sordo
TTITLE25=la chica de mi barrio
TTITLE26=y volo,volo
TTITLE27=por lo q yo te quiero
TTITLE28=un largo camino al cielo
TTITLE29=de enero a enero
EXTD=
EXTT0=
EXTT1=
EXTT2=
EXTT3=
EXTT4=
EXTT5=
EXTT6=
EXTT7=
EXTT8=
EXTT9=
EXTT10=
EXTT11=
EXTT12=
EXTT13=
EXTT14=
EXTT15=
EXTT16=
EXTT17=
EXTT18=
EXTT19=
EXTT20=
EXTT21=
EXTT22=
EXTT23=
EXTT24=
EXTT25=
EXTT26=
EXTT27=
EXTT28=
EXTT29=
PLAYORDER=
